<?xml version="1.0" standalone="no"?>
<!DOCTYPE svg PUBLIC "-//W3C//DTD SVG 20010904//EN"
 "http://www.w3.org/TR/2001/REC-SVG-20010904/DTD/svg10.dtd">
<svg version="1.0" xmlns="http://www.w3.org/2000/svg"
 width="700.000000pt" height="700.000000pt" viewBox="0 0 700.000000 700.000000"
 preserveAspectRatio="xMidYMid meet">
<metadata>
Created by potrace 1.14, written by Peter Selinger 2001-2017
</metadata>
<g transform="translate(0.000000,700.000000) scale(0.100000,-0.100000)"
fill="#000000" stroke="none">
<path d="M1000 6120 c-282 -401 -515 -730 -519 -730 -3 0 -44 38 -91 85 -47
47 -93 85 -102 85 -17 0 -18 -17 -18 -241 l0 -240 -62 -87 c-34 -48 -61 -94
-60 -102 0 -8 28 -107 62 -219 38 -131 60 -222 60 -254 0 -38 5 -56 21 -74 16
-16 61 -156 155 -475 102 -347 138 -457 156 -474 69 -66 2892 -2544 2899
-2544 4 0 179 151 388 335 209 184 384 335 388 335 5 0 159 -151 343 -335
l335 -335 295 0 295 0 303 303 302 302 0 295 0 295 -300 300 -301 301 435 382
434 382 20 68 c113 373 412 1403 412 1415 0 21 -1358 1957 -1373 1957 -6 0
-450 -136 -987 -302 -536 -165 -982 -301 -991 -300 -9 0 -135 37 -280 82
l-264 82 -160 159 -160 159 -355 0 -355 0 -193 60 c-107 33 -200 60 -207 60
-7 0 -243 -328 -525 -730z m2042 133 l428 -428 0 -580 0 -580 1315 -1315 1315
-1315 0 -285 0 -285 -282 -282 -283 -283 -285 0 -285 0 -1315 1315 -1315 1315
-580 0 -580 0 -427 427 -428 428 0 545 0 545 565 -565 565 -565 432 144 c238
79 443 149 455 157 16 10 53 110 170 459 l148 445 -565 565 -565 565 545 0
545 0 427 -427z"/>
</g>
</svg>
